<?xml version="1.0" encoding="UTF-8"?>
<svg version="1.1" xmlns="http://www.w3.org/2000/svg" width="500" height="500">
<path d="M0 0 C0.8971875 1.0209375 0.8971875 1.0209375 1.8125 2.0625 C17.3343498 17.40994699 41.52850653 20.17482017 62.3515625 20.1328125 C63.93896744 20.13424759 63.93896744 20.13424759 65.55844116 20.13571167 C67.78212545 20.13638849 70.00581176 20.13456915 72.22949219 20.13037109 C75.62179004 20.12500508 79.01395616 20.13033857 82.40625 20.13671875 C84.57552112 20.13605809 86.74479217 20.13477718 88.9140625 20.1328125 C90.42524155 20.13584885 90.42524155 20.13584885 91.96694946 20.13894653 C97.08289413 20.12199717 101.93934699 19.8466893 107 19 C110.82391966 18.71616266 114.64836004 18.49867326 118.4765625 18.28125 C121.85598174 18.09233605 121.85598174 18.09233605 124.53515625 17.44140625 C127.72560656 16.87005778 130.58999138 17.14454467 133.8125 17.4375 C134.97394531 17.53933594 136.13539063 17.64117187 137.33203125 17.74609375 C138.21246094 17.82988281 139.09289062 17.91367188 140 18 C140.13019531 17.25105469 140.26039063 16.50210938 140.39453125 15.73046875 C141.22245995 11.9967774 142.55226865 8.95862855 145 6 C148.25 4.5625 148.25 4.5625 151 4 C151.68707031 4.91265625 152.37414062 5.8253125 153.08203125 6.765625 C159.38477275 14.30676106 170.50077626 17.88342458 180 19 C180.67289063 19.09667969 181.34578125 19.19335938 182.0390625 19.29296875 C184.80978677 19.67380535 187.58154253 19.96271171 190.3671875 20.2109375 C197.37371586 20.84392604 204.30495026 21.76831675 211 24 C213.92850446 24.12955318 216.82078431 24.18998309 219.75 24.1875 C221.0959021 24.18737915 221.0959021 24.18737915 222.46899414 24.18725586 C231.14263959 24.11849208 239.78477118 23.62396472 248.4375 23.0625 C249.11639282 23.01902435 249.79528564 22.97554871 250.49475098 22.93075562 C258.1320244 22.52270123 258.1320244 22.52270123 265.69433594 21.48144531 C270.62869104 20.7627933 275.53893284 20.79604576 280.51953125 20.76171875 C281.65033615 20.753647 282.78114105 20.74557526 283.94621277 20.73725891 C286.34767133 20.72343936 288.74914935 20.71270771 291.15063477 20.70483398 C293.55792171 20.69343873 295.96518599 20.67319123 298.37231445 20.64331055 C315.32375011 20.43333844 331.36289162 21.7234114 348 25 C348.91875412 25.18027237 349.83750824 25.36054474 350.78410339 25.54627991 C362.71933222 27.91234851 374.1335956 30.35066218 385 36 C385.58668457 36.2995459 386.17336914 36.5990918 386.77783203 36.90771484 C399.47483966 43.40363224 409.82199273 49.88978068 419 61 C419.598125 61.5775 420.19625 62.155 420.8125 62.75 C422 64 422 64 422 66 C422.66 66 423.32 66 424 66 C424 66.99 424 67.98 424 69 C424.66 69 425.32 69 426 69 C437.26799956 90.97259914 443.00693216 117.95571905 435.3046875 142.1875 C434.59606125 144.15673505 433.82479132 146.07684796 433 148 C432.60941406 148.92619141 432.60941406 148.92619141 432.2109375 149.87109375 C431.48157431 151.58399214 430.74113687 153.29216286 430 155 C429.32723284 156.6642135 428.65793165 158.32986582 428 160 C427.34 160 426.68 160 426 160 C425.71125 160.7425 425.4225 161.485 425.125 162.25 C424.75375 163.1575 424.3825 164.065 424 165 C423.731875 165.66 423.46375 166.32 423.1875 167 C421.53524964 169.78273745 419.31271369 171.74007293 417 174 C416.195625 174.79019531 415.39125 175.58039063 414.5625 176.39453125 C390.44853348 199.14841125 358.80916592 205.74881151 327.08203125 210.60546875 C324.94973216 210.91143823 324.94973216 210.91143823 323 212 C334.58971446 215.89263236 345.89861548 219.1551928 358 221 C358.81339844 221.13148438 359.62679688 221.26296875 360.46484375 221.3984375 C379.448584 224.0144464 398.65959964 220.78243351 417 216 C418.27282165 221.47436885 419.13075471 226.82497156 419.5 232.4375 C420.80757659 251.15763813 425.98074641 275.37833403 440.6875 288.375 C441.450625 288.91125 442.21375 289.4475 443 290 C443.44472656 290.4846875 443.88945312 290.969375 444.34765625 291.46875 C449.16241703 295.93065597 456.63099174 297.44617319 463 298 C460.38949915 308.44200341 452.85537654 314.56091086 444 320 C416.25705931 334.44678479 383.02792471 335.7312829 353.3125 326.625 C347.47632143 324.72135377 342.10792754 322.42241423 337 319 C336.32839844 318.56042969 335.65679687 318.12085938 334.96484375 317.66796875 C314.91459868 303.64438694 309.0412009 280.16712939 302.6652832 257.8984375 C298.11131218 242.10848631 292.02967567 226.51153321 276.9296875 217.9609375 C273.99752388 216.50079124 271.04631667 215.20583368 268 214 C268.62756396 219.00574548 269.2974818 224.00431502 270 229 C270.10183594 229.72703125 270.20367187 230.4540625 270.30859375 231.203125 C273.54311265 253.72496029 278.94663213 275.58229689 298 290 C303.00120028 293.15293061 308.24895009 294.03391454 314 295 C311.77077043 302.8023035 307.63575631 308.39092788 301 313 C300.34 313 299.68 313 299 313 C299 313.66 299 314.32 299 315 C297.10545176 315.96087136 295.20930419 316.91858969 293.3125 317.875 C292.25675781 318.40867187 291.20101563 318.94234375 290.11328125 319.4921875 C282.87046632 323 282.87046632 323 279 323 C279.33 323.99 279.66 324.98 280 326 C279.05898438 326.06058594 278.11796875 326.12117188 277.1484375 326.18359375 C275.28058594 326.30927734 275.28058594 326.30927734 273.375 326.4375 C272.14523437 326.51871094 270.91546875 326.59992188 269.6484375 326.68359375 C266.12134278 326.93687057 266.12134278 326.93687057 263.15234375 327.49609375 C251.5450106 329.35154106 230.85605846 332.42802923 220 327 C217.4377732 326.87773147 214.90091182 326.81434423 212.33740234 326.79467773 C211.54707108 326.78477814 210.75673981 326.77487854 209.94245911 326.76467896 C207.3236493 326.73302878 204.70482134 326.70829267 202.0859375 326.68359375 C200.27275108 326.66302726 198.45956948 326.64203087 196.64639282 326.62062073 C191.86901758 326.56536858 187.09159885 326.51597318 182.31414795 326.46777344 C177.44116332 326.41758134 172.56824202 326.36188333 167.6953125 326.30664062 C158.1302624 326.19902062 148.56515738 326.09758419 139 326 C145 315 145 315 146.43457031 312.38476562 C155.55864115 295.54378172 158.71047779 270.99894046 153.51464844 252.36010742 C149.16731768 238.86844851 142.36007946 223.94083318 130 216 C125.11983685 213.65828322 120.13288058 211.71096019 115 210 C114.88303596 219.18976661 114.79475185 228.37926863 114.74093914 237.56962299 C114.71508351 241.83924872 114.68013897 246.10835732 114.62280273 250.37768555 C114.26933589 277.41547422 115.71957586 298.62993955 131 322 C127.66641099 324.00100151 125.17790516 324.2378929 121.31793213 324.20254517 C120.15969437 324.19688034 119.0014566 324.19121552 117.80812073 324.18537903 C115.90811562 324.16056709 115.90811562 324.16056709 113.96972656 324.13525391 C112.61940648 324.12482504 111.26907923 324.11529032 109.91874695 324.10658264 C106.25575579 324.08042772 102.59299077 324.04176084 98.93013859 324.00085878 C95.10117037 323.96022583 91.27211519 323.93108371 87.4430542 323.90072632 C80.19344973 323.84150235 72.94398285 323.77193396 65.69450831 323.69865549 C57.44070989 323.61572841 49.18682441 323.54432338 40.9329114 323.47388959 C23.95514472 323.32875348 6.97754418 323.16913675 -10 323 C-9.05391622 321.26012793 -8.10717234 319.52061479 -7.16015625 317.78125 C-6.63301025 316.81251953 -6.10586426 315.84378906 -5.56274414 314.84570312 C-4.5881416 313.07098555 -3.60162164 311.30269765 -2.59723377 309.54466534 C5.57895023 295.12966733 6.74617248 278.73228131 6.70703125 262.55078125 C6.72053122 260.57338481 6.73614668 258.5960019 6.75367737 256.61863708 C6.7945107 251.2915977 6.80485234 245.96491993 6.80809784 240.63774109 C6.81553691 235.0185187 6.8473092 229.39942297 6.87548828 223.78027344 C6.91987286 214.21826055 6.94453885 204.6563366 6.96044922 195.09423828 C6.98114046 183.49225077 7.04828024 171.89106449 7.13598156 160.28940487 C7.21431232 149.88361235 7.27454683 139.47783437 7.32021046 129.07184696 C7.3480394 122.78748119 7.38303949 116.50335776 7.43569946 110.21914673 C7.48428822 104.30347763 7.50859007 98.38819883 7.51414299 92.47233772 C7.52029059 90.28933595 7.53510011 88.10633969 7.55899239 85.92346001 C7.59026516 82.94426424 7.5908673 79.96661826 7.58349609 76.98730469 C7.59990552 76.11239537 7.61631495 75.23748606 7.63322163 74.33606434 C7.66283987 71.65657404 7.66283987 71.65657404 7 68 C4.69187075 65.93967068 4.69187075 65.93967068 2 65 C-8.59488986 55.15298472 -11.29451927 41.34319793 -11.92578125 27.44140625 C-12.12880459 18.02753444 -9.62043014 10.55409219 -3.4921875 3.1875 C-2.125 1.8125 -2.125 1.8125 0 0 Z M115 39 C114.93941406 39.58007812 114.87882812 40.16015625 114.81640625 40.7578125 C114.73261719 41.53898437 114.64882812 42.32015625 114.5625 43.125 C114.48128906 43.89070313 114.40007812 44.65640625 114.31640625 45.4453125 C114.09435039 47.23820793 113.81270648 49.02424374 113.48774052 50.80137062 C113.02419945 53.84129869 112.87682057 56.66160165 112.87974548 59.73275757 C112.87837082 60.85167389 112.87699615 61.97059021 112.87557983 63.12341309 C112.87917511 64.33613892 112.88277039 65.54886475 112.88647461 66.79833984 C112.88632858 68.08668732 112.88618256 69.37503479 112.8860321 70.7024231 C112.88574596 74.22263075 112.89161308 77.74280412 112.89860606 81.26300383 C112.90487009 84.94654382 112.90544581 88.63008465 112.90663147 92.31362915 C112.9097358 99.28329925 112.91793707 106.25295361 112.92798096 113.22261679 C112.93917 121.15972487 112.94465958 129.0968337 112.94967639 137.03394771 C112.96012045 153.35597434 112.97770248 169.67798516 113 186 C116.47900249 186.08825361 119.95771117 186.14080635 123.4375 186.1875 C124.41138672 186.21263672 125.38527344 186.23777344 126.38867188 186.26367188 C135.69372203 186.35703358 142.76498655 183.74290111 151.0625 179.8125 C152.18785156 179.28269531 153.31320313 178.75289062 154.47265625 178.20703125 C155.30667969 177.80871094 156.14070313 177.41039062 157 177 C157.18543526 163.30044489 157.32754618 149.60118876 157.41449738 135.90063381 C157.45623206 129.53869203 157.51283184 123.1776094 157.60351562 116.81616211 C157.69049861 110.67583347 157.73828707 104.53633065 157.75901794 98.39543343 C157.77378942 96.05378277 157.80263582 93.71217687 157.84584045 91.37087822 C157.90400629 88.0879778 157.91190941 84.80848005 157.90820312 81.52514648 C157.93696533 80.55913513 157.96572754 79.59312378 157.99536133 78.59783936 C157.94704082 74.63668566 157.87659983 72.04533386 155.27220154 68.93962288 C153.19622741 67.09095282 153.19622741 67.09095282 151.0354538 65.56405735 C144.28194225 60.37461046 142.00985592 52.68298483 140.0546875 44.72265625 C139.25506349 41.94344036 139.25506349 41.94344036 137.20703125 40.66015625 C130.13631922 38.54519991 122.31531179 38.88007686 115 39 Z M264 43 C262.96146706 46.16324392 262.96146706 46.16324392 263 50 C264.16466524 51.92883295 265.55545386 53.37261716 267.1171875 54.99609375 C283.60928534 72.54888668 288.19597047 94.60781717 288 118 C287.70216937 123.39339978 286.90354172 128.67577429 286 134 C285.85111328 135.20269531 285.85111328 135.20269531 285.69921875 136.4296875 C284.24743881 145.7000895 278.73536785 155.37626865 273.23828125 162.8671875 C270.80622195 165.62951348 270.80622195 165.62951348 271 168 C269.515 168.495 269.515 168.495 268 169 C266.64172029 170.64639965 265.30745749 172.31295807 264 174 C263.34 174.33 262.68 174.66 262 175 C262 179.95 262 184.9 262 190 C279.91603059 190.47564683 295.95874204 188.80764216 310.3125 176.875 C324.40788039 163.29916088 328.72054429 142.79636714 329.18359375 123.90625 C329.53978144 99.50739323 328.30528313 74.66358174 310.8984375 55.8125 C297.74827204 43.25760952 281.18743336 42.75407488 264 43 Z " fill="#FD65C2" transform="translate(25,68)"/>
<path d="M0 0 C1.59039597 -0.01925285 1.59039597 -0.01925285 3.21292114 -0.03889465 C4.94226395 -0.04997505 4.94226395 -0.04997505 6.70654297 -0.0612793 C7.90818085 -0.06935104 9.10981873 -0.07742279 10.34786987 -0.08573914 C12.90849361 -0.09959839 15.46913596 -0.11031226 18.02978516 -0.11816406 C20.60308389 -0.12954608 23.17636172 -0.14977099 25.74951172 -0.1796875 C43.19268439 -0.3823308 59.70692625 0.77162947 76.82373047 4.17700195 C77.74003738 4.35727432 78.6563443 4.53754669 79.60041809 4.72328186 C91.53864638 7.08921508 102.95457242 9.52623254 113.82373047 15.17700195 C114.41041504 15.47654785 114.99709961 15.77609375 115.6015625 16.0847168 C128.29857013 22.5806342 138.6457232 29.06678263 147.82373047 40.17700195 C148.42185547 40.75450195 149.01998047 41.33200195 149.63623047 41.92700195 C150.82373047 43.17700195 150.82373047 43.17700195 150.82373047 45.17700195 C151.48373047 45.17700195 152.14373047 45.17700195 152.82373047 45.17700195 C152.82373047 46.16700195 152.82373047 47.15700195 152.82373047 48.17700195 C153.48373047 48.17700195 154.14373047 48.17700195 154.82373047 48.17700195 C166.09173003 70.14960109 171.83066263 97.13272101 164.12841797 121.36450195 C163.41979172 123.333737 162.64852179 125.25384992 161.82373047 127.17700195 C161.43314453 128.10319336 161.43314453 128.10319336 161.03466797 129.0480957 C160.30530478 130.76099409 159.56486734 132.46916482 158.82373047 134.17700195 C158.15096331 135.84121545 157.48166211 137.50686778 156.82373047 139.17700195 C156.16373047 139.17700195 155.50373047 139.17700195 154.82373047 139.17700195 C154.53498047 139.91950195 154.24623047 140.66200195 153.94873047 141.42700195 C153.57748047 142.33450195 153.20623047 143.24200195 152.82373047 144.17700195 C152.55560547 144.83700195 152.28748047 145.49700195 152.01123047 146.17700195 C150.35898011 148.9597394 148.13644416 150.91707488 145.82373047 153.17700195 C145.01935547 153.96719727 144.21498047 154.75739258 143.38623047 155.5715332 C119.27226395 178.3254132 87.63289639 184.92581346 55.90576172 189.7824707 C53.77346263 190.08844018 53.77346263 190.08844018 51.82373047 191.17700195 C63.41344493 195.06963431 74.72234595 198.33219476 86.82373047 200.17700195 C87.63712891 200.30848633 88.45052734 200.4399707 89.28857422 200.57543945 C108.27231446 203.19144835 127.48333011 199.95943546 145.82373047 195.17700195 C147.09655212 200.6513708 147.95448518 206.00197351 148.32373047 211.61450195 C149.63130706 230.33464008 154.80447688 254.55533599 169.51123047 267.55200195 C170.27435547 268.08825195 171.03748047 268.62450195 171.82373047 269.17700195 C172.26845703 269.66168945 172.71318359 270.14637695 173.17138672 270.64575195 C177.9861475 275.10765792 185.45472221 276.62317515 191.82373047 277.17700195 C189.21322962 287.61900537 181.67910701 293.73791281 172.82373047 299.17700195 C145.08078977 313.62378674 111.85165518 314.90828485 82.13623047 305.80200195 C76.3000519 303.89835572 70.93165801 301.59941618 65.82373047 298.17700195 C65.15212891 297.73743164 64.48052734 297.29786133 63.78857422 296.8449707 C43.73832915 282.82138889 37.86493137 259.34413134 31.48901367 237.07543945 C27.01637123 221.56747828 20.99445608 205.71776043 6.15185547 197.27075195 C1.1665825 194.9286774 -3.99429677 193.0333489 -9.17626953 191.17700195 C-9.17626953 192.49700195 -9.17626953 193.81700195 -9.17626953 195.17700195 C-41.8018312 202.9350973 -73.12190024 199.21191324 -104.17626953 187.17700195 C-104.17626953 186.84700195 -104.17626953 186.51700195 -104.17626953 186.17700195 C-103.39727295 186.07677734 -102.61827637 185.97655273 -101.81567383 185.87329102 C-56.17248382 180.49403136 -56.17248382 180.49403136 -16.17626953 159.36450195 C-13.69853885 157.3012446 -12.27327446 156.20933693 -9.17626953 155.17700195 C-8.98170248 157.13464578 -8.79582706 159.09315516 -8.61376953 161.05200195 C-8.45714844 162.68782227 -8.45714844 162.68782227 -8.29736328 164.35668945 C-8.17626953 167.17700195 -8.17626953 167.17700195 -9.17626953 169.17700195 C-8.18626953 168.84700195 -7.19626953 168.51700195 -6.17626953 168.17700195 C-4.25915861 168.18274181 -2.34205584 168.23051739 -0.42626953 168.30200195 C14.96353271 168.37047716 29.50376992 164.30463141 40.79638672 153.48168945 C58.04803828 133.86998536 57.92959602 105.22492528 56.69921875 80.69458008 C55.72595411 66.75170907 52.09557038 52.60910891 43.82373047 41.17700195 C43.13150391 40.21213867 43.13150391 40.21213867 42.42529297 39.2277832 C35.39696336 30.27734135 25.18787772 25.48204621 14.06982422 23.74731445 C11.32085662 23.4832215 8.58163641 23.31862415 5.82373047 23.17700195 C3.42755789 22.99388833 1.03171967 22.80634849 -1.36376953 22.61450195 C-3.30121129 22.46789693 -5.23869049 22.32178131 -7.17626953 22.17700195 C-8.16626953 25.64200195 -8.16626953 25.64200195 -9.17626953 29.17700195 C-10.05025391 28.59305664 -10.92423828 28.00911133 -11.82470703 27.4074707 C-12.37610352 27.04057129 -12.9275 26.67367187 -13.49560547 26.2956543 C-14.96613016 25.31687101 -16.43464996 24.33507694 -17.90283203 23.3527832 C-30.73488485 15.10360639 -45.04512121 7.85263184 -60.17626953 5.17700195 C-60.17626953 4.84700195 -60.17626953 4.51700195 -60.17626953 4.17700195 C-59.2050415 4.12165283 -58.23381348 4.06630371 -57.2331543 4.00927734 C-53.54092541 3.79882004 -49.84870825 3.58815773 -46.15649414 3.37744141 C-44.575117 3.28721843 -42.99373691 3.19704706 -41.41235352 3.10693359 C-40.27358765 3.04203735 -40.27358765 3.04203735 -39.11181641 2.97583008 C-37.96910782 2.91073746 -37.96910782 2.91073746 -36.80331421 2.84432983 C-35.26016994 2.7560599 -33.71705867 2.66721102 -32.17398071 2.57778931 C-28.22583343 2.34912973 -24.27753502 2.12840646 -20.328125 1.92260742 C-19.55105698 1.88066757 -18.77398895 1.83872772 -17.97337341 1.79551697 C-16.49589797 1.71582819 -15.01824766 1.63929806 -13.54042053 1.56642151 C-8.87042244 1.30936033 -4.67905027 0.04950023 0 0 Z " fill="#FBFAFA" transform="translate(296.17626953125,88.822998046875)"/>
<path d="M0 0 C10.76997498 0.58745318 18.75968599 6.21221423 26 14 C28.36345588 17.17807106 30.2263462 20.46303441 32 24 C32.45246094 24.88171875 32.90492188 25.7634375 33.37109375 26.671875 C40.13369664 41.20043431 40.28884475 56.42345616 40.375 72.125 C40.38294586 72.8869165 40.39089172 73.64883301 40.39907837 74.43383789 C40.50739927 87.98287145 39.67936725 101.92110159 33.8125 114.375 C33.36511475 115.35859497 33.36511475 115.35859497 32.90869141 116.36206055 C29.12689305 124.31792347 24.60735422 130.43558747 17 135 C17 100.02 17 65.04 17 29 C15.68 28.34 14.36 27.68 13 27 C6.30061406 21.89133584 0.85417905 13.87135704 -0.37109375 5.44921875 C-0.375 3.25 -0.375 3.25 0 0 Z " fill="#FCFAFC" transform="translate(165,110)"/>
<path d="M0 0 C1.95110884 2.92666326 2.87739125 5.56557178 3.90161133 8.90234375 C9.73557652 27.83565772 18.14913326 43.06514262 36 53 C36.70125 53.39960938 37.4025 53.79921875 38.125 54.2109375 C43.17779521 56.92070267 48.48047649 58.50701413 54 60 C54 60.33 54 60.66 54 61 C30.9 61 7.8 61 -16 61 C-14.45525452 56.36576355 -12.89484395 52.74232842 -10.625 48.5 C-7.04382675 41.57800692 -4.8582182 34.57364692 -3 27 C-2.78601563 26.25878906 -2.57203125 25.51757812 -2.3515625 24.75390625 C-0.19963888 16.75436411 -0.33743545 8.23164895 0 0 Z " fill="#FAF7FA" transform="translate(182,332)"/>
<path d="M0 0 C1.32 0 2.64 0 4 0 C4.103125 0.639375 4.20625 1.27875 4.3125 1.9375 C4.539375 2.618125 4.76625 3.29875 5 4 C5.99 4.33 6.98 4.66 8 5 C8.04674268 32.72941945 8.08199998 60.45883299 8.10362434 88.18828392 C8.11393225 101.06384982 8.12798335 113.93939123 8.15087891 126.81494141 C8.1708276 138.03864865 8.18371997 149.26233816 8.18817699 160.48606265 C8.19078185 166.42765476 8.1968944 172.36919611 8.21146011 178.31077194 C8.22506733 183.90687157 8.22921627 189.50289968 8.22621536 195.09901428 C8.22676412 197.14921584 8.23072278 199.19941987 8.23841095 201.24960709 C8.24842135 204.05755388 8.24594675 206.86523376 8.24050903 209.67318726 C8.24633472 210.47672178 8.2521604 211.2802563 8.25816262 212.10814035 C8.18162636 226.81837364 8.18162636 226.81837364 5 230 C4.60851239 231.51165654 4.26027543 233.03469632 3.9375 234.5625 C3.67259766 235.80193359 3.67259766 235.80193359 3.40234375 237.06640625 C3.20318359 238.02353516 3.20318359 238.02353516 3 239 C2.34 239 1.68 239 1 239 C1.2816803 237.93673492 1.5633606 236.87346985 1.85357666 235.77798462 C4.82702924 223.95053971 5.6034262 212.80459197 5.609375 200.6484375 C5.62475528 198.66961381 5.64178459 196.69080237 5.66030884 194.71200562 C5.70502426 189.37679813 5.72523699 184.04177145 5.73943329 178.70640564 C5.75364558 174.22564621 5.78007965 169.74499159 5.80646324 165.26428986 C5.86947856 154.54634092 5.91258729 143.82843473 5.94433594 133.11035156 C5.97948189 121.50155121 6.05228045 109.89333765 6.14055634 98.28483009 C6.21876804 87.88003036 6.27776435 77.47524224 6.32181549 67.07024193 C6.34865523 60.78649729 6.38289036 54.50300836 6.4354248 48.21942139 C6.48400056 42.30368224 6.50839696 36.38833167 6.51408005 30.47240067 C6.52026924 28.28937212 6.53510557 26.10634928 6.55900955 23.92344284 C6.59028048 20.94425257 6.59087639 17.96661272 6.58349609 14.98730469 C6.5999052 14.11239569 6.61631432 13.23748669 6.63322067 12.33606529 C6.66284016 9.6565742 6.66284016 9.6565742 6 6 C3.6311199 4.05803898 3.6311199 4.05803898 1 3 C0.67 2.01 0.34 1.02 0 0 Z " fill="#A64F85" transform="translate(26,130)"/>
<path d="M0 0 C0.33 1.32 0.66 2.64 1 4 C0.34 4 -0.32 4 -1 4 C-1.33 5.65 -1.66 7.3 -2 9 C41.89 9 85.78 9 131 9 C131.33 7.68 131.66 6.36 132 5 C132.99 6.98 133.98 8.96 135 11 C131.33981967 11.84649339 127.98873421 12.11347979 124.23564148 12.08229065 C123.08444321 12.07525116 121.93324493 12.06821167 120.74716187 12.06095886 C118.86657578 12.04153984 118.86657578 12.04153984 116.94799805 12.02172852 C115.6073794 12.01157842 114.26675722 12.00188554 112.9261322 11.99261475 C109.29426396 11.96620693 105.66247828 11.93341272 102.03067374 11.89946485 C98.23237711 11.86504916 94.43403638 11.83651658 90.63569641 11.80735779 C83.44638314 11.75127459 76.25712509 11.68990671 69.06787187 11.62663645 C60.88172882 11.55485048 52.69554162 11.48896154 44.50934541 11.42356598 C27.67283887 11.28893527 10.83640579 11.14669619 -6 11 C-4.02 7.37 -2.04 3.74 0 0 Z " fill="#B35790" transform="translate(21,380)"/>
<path d="M0 0 C6.6 0 13.2 0 20 0 C19.67 0.99 19.34 1.98 19 3 C13.39 2.34 7.78 1.68 2 1 C2.020625 2.36125 2.04125 3.7225 2.0625 5.125 C2.1029115 7.7921588 1.97022249 10.16810834 1.50378513 12.80137062 C1.02557501 15.83761928 0.86224647 18.66302889 0.84178162 21.73275757 C0.8319928 22.85167389 0.82220398 23.97059021 0.81211853 25.12341309 C0.80636307 26.33613892 0.8006076 27.54886475 0.79467773 28.79833984 C0.78477814 30.08668732 0.77487854 31.37503479 0.76467896 32.7024231 C0.73773784 36.22259712 0.71667015 39.7427844 0.69667697 43.26300383 C0.67475051 46.94656993 0.64739452 50.63009567 0.62062073 54.31362915 C0.57078363 61.28326957 0.52581163 68.2529325 0.48259836 75.22261679 C0.43314903 83.15975368 0.37825953 91.09685005 0.32291877 99.03394771 C0.2092367 115.35592775 0.10236788 131.67794499 0 148 C3.48005448 147.91805778 6.95849001 147.80531951 10.4375 147.6875 C11.41138672 147.66494141 12.38527344 147.64238281 13.38867188 147.61914062 C19.76503206 147.38455881 25.07174056 146.33470467 31 144 C34 143 37 142 40 141 C40 141.66 40 142.32 40 143 C38.7934375 143.433125 38.7934375 143.433125 37.5625 143.875 C34.8673532 144.73262568 34.8673532 144.73262568 34 147 C27.14766821 149.87777811 19.86969301 149.2209046 12.5625 149.125 C11.25861328 149.11597656 9.95472656 149.10695312 8.61132812 149.09765625 C5.40736168 149.07418397 2.20377736 149.04134727 -1 149 C-1.02334267 130.01577882 -1.04098592 111.03156054 -1.05181217 92.047328 C-1.05697221 83.23296314 -1.06400938 74.41860719 -1.07543945 65.60424805 C-1.08539518 57.92319095 -1.09185555 50.24214031 -1.09408849 42.56107694 C-1.09539408 38.49264147 -1.09847041 34.42422447 -1.10573006 30.35579491 C-1.11250426 26.52850098 -1.11461409 22.70123315 -1.11310768 18.87393379 C-1.11338338 17.46742994 -1.11538021 16.06092525 -1.11920547 14.65442657 C-1.12416447 12.73745349 -1.12239245 10.82046647 -1.12025452 8.90348816 C-1.12117631 7.82959933 -1.1220981 6.75571051 -1.12304783 5.64927959 C-1 3 -1 3 0 0 Z " fill="#D86AAD" transform="translate(138,106)"/>
<path d="M0 0 C0.495 0.721875 0.99 1.44375 1.5 2.1875 C5.23989156 6.394878 10.01485886 8.49883436 15 11 C15 11.66 15 12.32 15 13 C6.09 13 -2.82 13 -12 13 C-10.91680486 7.5840243 -9.61692037 2.90321481 -4.9375 -0.5 C-3 -1 -3 -1 0 0 Z " fill="#ECEAEB" transform="translate(177,73)"/>
<path d="M0 0 C0.66 0 1.32 0 2 0 C2.00808685 0.90709213 2.01617371 1.81418427 2.02450562 2.74876404 C2.10266554 11.3255913 2.19001983 19.90226616 2.28752708 28.47889614 C2.33732878 32.8875105 2.38365937 37.29610276 2.421875 41.70483398 C2.45893262 45.96488761 2.50534624 50.22474871 2.55806351 54.48463631 C2.57649925 56.10436668 2.59164649 57.72413815 2.60334396 59.3439312 C2.66416704 67.48006852 2.90594525 75.0819539 5 83 C5 84.32 5 85.64 5 87 C4.01 86.67 3.02 86.34 2 86 C-0.09752025 76.18679812 -0.26280068 66.61328249 -0.1953125 56.640625 C-0.1915733 54.99867934 -0.18873063 53.35673142 -0.18673706 51.71478271 C-0.17917187 47.43393582 -0.15958625 43.15322887 -0.1373291 38.87243652 C-0.11671565 34.48789359 -0.1077025 30.10332762 -0.09765625 25.71875 C-0.07633221 17.14576976 -0.04228442 8.57290238 0 0 Z " fill="#AB5188" transform="translate(137,277)"/>
<path d="M0 0 C6.6 0 13.2 0 20 0 C19.67 0.99 19.34 1.98 19 3 C13.39 2.34 7.78 1.68 2 1 C2.020625 2.36125 2.04125 3.7225 2.0625 5.125 C2.10115426 7.67618105 2.01078005 9.9456235 1.51367188 12.453125 C0.79696873 17.40191934 0.76379266 22.30993132 0.68359375 27.3046875 C0.66281265 28.38380402 0.64203156 29.46292053 0.62062073 30.57473755 C0.55544887 34.00809611 0.4963911 37.44152853 0.4375 40.875 C0.39428399 43.20834085 0.35066873 45.54167434 0.30664062 47.875 C0.19980078 53.58325618 0.09797533 59.29158516 0 65 C-0.33 65 -0.66 65 -1 65 C-1.02316114 56.96801972 -1.04093436 48.93605338 -1.05181217 40.90404797 C-1.05703273 37.17454538 -1.0641154 33.44506562 -1.07543945 29.71557617 C-1.08629767 26.11702055 -1.09228308 22.5184869 -1.09487724 18.91991615 C-1.09672619 17.54638638 -1.10033666 16.17285782 -1.10573006 14.79933739 C-1.11297928 12.87689764 -1.11340839 10.95443583 -1.11352539 9.03198242 C-1.115746 7.93722092 -1.11796661 6.84245941 -1.12025452 5.71452332 C-1 3 -1 3 0 0 Z " fill="#DC6CB1" transform="translate(138,106)"/>
<path d="M0 0 C4.04556982 3.34805779 5.74845477 7.00308978 7 12 C7.21269018 14.40294652 7.1511425 16.58171993 7 19 C7.66 19 8.32 19 9 19 C9 20.65 9 22.3 9 24 C9.66 24 10.32 24 11 24 C11.36504603 25.58086048 11.71660506 27.16483907 12.0625 28.75 C12.25972656 29.63171875 12.45695313 30.5134375 12.66015625 31.421875 C13 34 13 34 12 38 C11.01 34.7 10.02 31.4 9 28 C8.67 32.95 8.34 37.9 8 43 C7.34 42.67 6.68 42.34 6 42 C6.02618408 41.41734375 6.05236816 40.8346875 6.0793457 40.234375 C6.59088949 27.05597094 5.7068624 16.31500393 1 4 C0.63964285 2.67371511 0.29070797 1.34327129 0 0 Z " fill="#AA668E" transform="translate(174,307)"/>
<path d="M0 0 C-7.80347552 3.10193017 -15.51114568 5.16980961 -23.75 6.75 C-24.83410156 6.97042969 -25.91820312 7.19085938 -27.03515625 7.41796875 C-32.44625299 8.48168862 -37.48462386 9.28364792 -43 9 C-40.59253975 6.59253975 -39.30382074 6.50894574 -36 5.9375 C-32.38219325 5.32706347 -32.38219325 5.32706347 -29 4 C-27.23099227 3.86842091 -25.4594914 3.7696453 -23.6875 3.6875 C-17.68172664 3.2600686 -12.46817178 1.75216889 -6.8125 -0.2578125 C-3.89034678 -1.02893627 -2.79920034 -0.83841145 0 0 Z " fill="#EE78BF" transform="translate(251,264)"/>
<path d="M0 0 C0.598125 0.680625 1.19625 1.36125 1.8125 2.0625 C5.90172867 6.19927784 11.06069595 8.99835638 16 12 C15.34 12.66 14.68 13.32 14 14 C12.68 13.34 11.36 12.68 10 12 C10 11.34 10 10.68 10 10 C7.58354218 9.83312552 7.58354218 9.83312552 5 10 C4.34 10.66 3.68 11.32 3 12 C1 9 1 9 1 6 C-0.98 6.33 -2.96 6.66 -5 7 C-3.70700306 4.11562221 -2.34058637 2.12780579 0 0 Z " fill="#CC5AA0" transform="translate(25,68)"/>
<path d="M0 0 C0.33 0 0.66 0 1 0 C1.05003872 3.94690003 1.08601633 7.89367309 1.10986328 11.84082031 C1.12467591 13.83144637 1.15010992 15.82198437 1.17578125 17.8125 C1.21229944 25.04310192 1.11070373 32.0271048 -1 39 C-1.495 39.495 -1.495 39.495 -2 40 C-2.39148761 41.51165654 -2.73972457 43.03469632 -3.0625 44.5625 C-3.23910156 45.38878906 -3.41570313 46.21507812 -3.59765625 47.06640625 C-3.73042969 47.70449219 -3.86320312 48.34257812 -4 49 C-4.66 49 -5.32 49 -6 49 C-5.35610937 46.0620618 -4.70997221 43.124649 -4.0625 40.1875 C-3.88009766 39.35412109 -3.69769531 38.52074219 -3.50976562 37.66210938 C-3.33251953 36.85966797 -3.15527344 36.05722656 -2.97265625 35.23046875 C-2.81031494 34.49207764 -2.64797363 33.75368652 -2.48071289 32.99291992 C-2 31 -2 31 -1 28 C-0.84929203 25.86338742 -0.7514034 23.72287876 -0.68359375 21.58203125 C-0.64169922 20.32841797 -0.59980469 19.07480469 -0.55664062 17.78320312 C-0.51732422 16.47287109 -0.47800781 15.16253906 -0.4375 13.8125 C-0.39429008 12.47720022 -0.350675 11.14191348 -0.30664062 9.80664062 C-0.20043498 6.53786703 -0.09839003 3.26901667 0 0 Z " fill="#C961A0" transform="translate(33,320)"/>
<path d="M0 0 C0 0.66 0 1.32 0 2 C-1.2065625 2.433125 -1.2065625 2.433125 -2.4375 2.875 C-5.1326468 3.73262568 -5.1326468 3.73262568 -6 6 C-12.73199381 8.79441252 -19.76283501 8.22281924 -26.9375 8.125 C-28.82178711 8.11146484 -28.82178711 8.11146484 -30.74414062 8.09765625 C-33.82962522 8.07419249 -36.91471205 8.04136201 -40 8 C-40 7.67 -40 7.34 -40 7 C-39.38068604 6.98541748 -38.76137207 6.97083496 -38.12329102 6.95581055 C-35.26912227 6.88052583 -32.41602251 6.78413686 -29.5625 6.6875 C-28.58861328 6.66494141 -27.61472656 6.64238281 -26.61132812 6.61914062 C-18.66844409 6.3269275 -12.2961713 4.45097698 -5.0625 1.3125 C-2 0 -2 0 0 0 Z " fill="#833766" transform="translate(178,247)"/>
<path d="M0 0 C1.32 0 2.64 0 4 0 C4.103125 0.639375 4.20625 1.27875 4.3125 1.9375 C4.539375 2.618125 4.76625 3.29875 5 4 C5.99 4.33 6.98 4.66 8 5 C8 18.53 8 32.06 8 46 C7.67 46 7.34 46 7 46 C6.99589111 44.8039917 6.99178223 43.6079834 6.98754883 42.37573242 C6.96579027 37.9416992 6.9115353 33.50855755 6.84741211 29.07495117 C6.82420336 27.15544169 6.80982965 25.23580434 6.80444336 23.31616211 C6.79517454 20.55761775 6.754232 17.80109237 6.70703125 15.04296875 C6.7109639 14.18350143 6.71489655 13.32403412 6.71894836 12.43852234 C6.66354709 10.18050495 6.58142204 8.18306688 6 6 C3.62561503 4.05618884 3.62561503 4.05618884 1 3 C0.67 2.01 0.34 1.02 0 0 Z " fill="#C76EA3" transform="translate(26,130)"/>
<path d="M0 0 C2.29236186 0.47582968 4.58387209 0.95576385 6.875 1.4375 C8.15117188 1.70433594 9.42734375 1.97117187 10.7421875 2.24609375 C14 3 14 3 16 4 C17.73868744 4.15266612 19.48247501 4.24932596 21.2265625 4.31640625 C22.2578125 4.35830078 23.2890625 4.40019531 24.3515625 4.44335938 C25.43179688 4.48267578 26.51203125 4.52199219 27.625 4.5625 C29.25695312 4.62727539 29.25695312 4.62727539 30.921875 4.69335938 C33.6144517 4.7996453 36.30712253 4.90168057 39 5 C39 5.33 39 5.66 39 6 C9.18695941 6.47012315 9.18695941 6.47012315 3 4 C1.20703125 1.921875 1.20703125 1.921875 0 0 Z " fill="#EC6EBA" transform="translate(57,85)"/>
<path d="M0 0 C-4.3257952 2.88386347 -7.49665443 3.1250178 -12.640625 3.09765625 C-13.71054688 3.09443359 -14.78046875 3.09121094 -15.8828125 3.08789062 C-16.99398437 3.07951172 -18.10515625 3.07113281 -19.25 3.0625 C-20.93996094 3.05573242 -20.93996094 3.05573242 -22.6640625 3.04882812 C-25.44276217 3.03705397 -28.22135409 3.0206084 -31 3 C-31 2.67 -31 2.34 -31 2 C-24.78452244 1.03386359 -18.60957026 0.6316095 -12.328125 0.28125 C-2.67326733 -0.53465347 -2.67326733 -0.53465347 0 0 Z " fill="#AD5088" transform="translate(156,86)"/>
<path d="M0 0 C6.6 0 13.2 0 20 0 C19.67 0.99 19.34 1.98 19 3 C13.39 2.34 7.78 1.68 2 1 C2.020625 2.36125 2.04125 3.7225 2.0625 5.125 C2.0683928 8.85514162 1.75187259 12.33462114 1 16 C0.67 16 0.34 16 0 16 C0 10.72 0 5.44 0 0 Z " fill="#9B4979" transform="translate(138,106)"/>
<path d="M0 0 C9.5237366 3.17457887 9.5237366 3.17457887 11.21484375 6.10546875 C11.60349609 7.04326172 11.60349609 7.04326172 12 8 C10.20763933 7.52343588 8.41613103 7.04366502 6.625 6.5625 C5.62726563 6.29566406 4.62953125 6.02882813 3.6015625 5.75390625 C1 5 1 5 -1 4 C-0.67 2.68 -0.34 1.36 0 0 Z " fill="#F46ABA" transform="translate(139,273)"/>
<path d="M0 0 C1.485 0.99 1.485 0.99 3 2 C3.6875 5.625 3.6875 5.625 4 9 C4.66 9 5.32 9 6 9 C6.99 12.3 7.98 15.6 9 19 C9.66 19 10.32 19 11 19 C10.67 20.32 10.34 21.64 10 23 C8.70506805 20.60588163 7.41397828 18.2098212 6.125 15.8125 C5.76019531 15.13896484 5.39539063 14.46542969 5.01953125 13.77148438 C0 4.41690341 0 4.41690341 0 0 Z " fill="#ED76BD" transform="translate(187,345)"/>
<path d="M0 0 C3.29979979 3.04596904 5.88802457 6.42758413 8.5390625 10.02734375 C10.29789981 12.4022444 12.13658612 14.70656753 14 17 C10.55835531 15.47038014 7.90848242 13.37270934 5 11 C4.34 10.67 3.68 10.34 3 10 C2.375 6.9375 2.375 6.9375 2 4 C1.34 4 0.68 4 0 4 C0 2.68 0 1.36 0 0 Z " fill="#8C396A" transform="translate(305,339)"/>
<path d="M0 0 C4.04551168 3.34800967 5.78333659 6.98914922 7 12 C7.21797674 14.72702816 7.14691484 17.25758966 7 20 C4.30232521 17.30232521 3.94007272 14.79220516 2.9375 11.125 C2.59589844 9.89007813 2.25429687 8.65515625 1.90234375 7.3828125 C1.24699811 4.92597558 0.60204736 2.47025619 0 0 Z " fill="#AB4D84" transform="translate(174,307)"/>
<path d="M0 0 C6.40140935 0.46555704 11.26769829 2.14711836 17 5 C13.58367707 5.97920084 11.47071781 5.80093488 8 5 C7.01 5 6.02 5 5 5 C5 4.01 5 3.02 5 2 C3.35 2 1.7 2 0 2 C0 1.34 0 0.68 0 0 Z " fill="#F078C0" transform="translate(240,95)"/>
<path d="M0 0 C1.51699416 2.80452702 2.45308563 5.3857302 3.125 8.5 C3.29257813 9.2528125 3.46015625 10.005625 3.6328125 10.78125 C4 13 4 13 4 17 C3.01 16.67 2.02 16.34 1 16 C0.08342019 10.61509359 -0.11138159 5.45769811 0 0 Z " fill="#C15A96" transform="translate(138,347)"/>
<path d="M0 0 C2.475 0.495 2.475 0.495 5 1 C5.12375 1.639375 5.2475 2.27875 5.375 2.9375 C5.684375 3.9584375 5.684375 3.9584375 6 5 C6.66 5.33 7.32 5.66 8 6 C9.6875 9.375 9.6875 9.375 11 13 C10.67 13.99 10.34 14.98 10 16 C9.52949219 15.18015625 9.05898437 14.3603125 8.57421875 13.515625 C7.95160156 12.43796875 7.32898438 11.3603125 6.6875 10.25 C6.07261719 9.18265625 5.45773438 8.1153125 4.82421875 7.015625 C3.32904649 4.54394837 1.78623484 2.26439616 0 0 Z " fill="#893968" transform="translate(162,289)"/>
<path d="M0 0 C0.33 0 0.66 0 1 0 C0.37679879 6.43974581 -0.64008262 12.67572401 -2 19 C-2.33 19 -2.66 19 -3 19 C-3.35368021 11.87399867 -2.95671348 6.52940894 0 0 Z " fill="#853C6A" transform="translate(16,80)"/>
<path d="M0 0 C0.99 1.485 0.99 1.485 2 3 C-6.57142857 2.28571429 -6.57142857 2.28571429 -10 -1 C-5.96598549 -1.91682148 -3.46902632 -2.47787594 0 0 Z " fill="#F174BD" transform="translate(232,388)"/>
<path d="M0 0 C2.97 0.495 2.97 0.495 6 1 C7.10228696 5.40914783 7.07654536 9.48382401 7 14 C6.67 14 6.34 14 6 14 C5.67 10.7 5.34 7.4 5 4 C3.35 4 1.7 4 0 4 C0 2.68 0 1.36 0 0 Z " fill="#9E5781" transform="translate(287,280)"/>
<path d="M0 0 C4.31931387 0.61611835 8.25208775 1.64238578 12.375 3.0625 C13.43460938 3.42472656 14.49421875 3.78695313 15.5859375 4.16015625 C16.38257813 4.43730469 17.17921875 4.71445312 18 5 C17.01 5.66 16.02 6.32 15 7 C12.30680224 6.15819174 9.88095733 5.25214747 7.3125 4.125 C6.61060547 3.82980469 5.90871094 3.53460938 5.18554688 3.23046875 C3.45181161 2.49923347 1.72518427 1.75118724 0 1 C0 0.67 0 0.34 0 0 Z " fill="#EE79BD" transform="translate(192,276)"/>
<path d="M0 0 C1.32 0.33 2.64 0.66 4 1 C4 3 4 3 1.6875 5.5 C-1 8 -1 8 -4 10 C-3.67 7.69 -3.34 5.38 -3 3 C-1.68 3 -0.36 3 1 3 C0.67 2.01 0.34 1.02 0 0 Z " fill="#B7538F" transform="translate(292,233)"/>
<path d="M0 0 C0.99 0.33 1.98 0.66 3 1 C0.525 6.94 0.525 6.94 -2 13 C-2.33 13 -2.66 13 -3 13 C-2.88490339 11.58249437 -2.75746342 10.16598831 -2.625 8.75 C-2.55539062 7.96109375 -2.48578125 7.1721875 -2.4140625 6.359375 C-1.98492887 3.914123 -1.21399362 2.15163097 0 0 Z " fill="#BD5691" transform="translate(307,209)"/>
<path d="M0 0 C1.65 1.65 3.3 3.3 5 5 C4.34 5.66 3.68 6.32 3 7 C3 6.34 3 5.68 3 5 C0.36 5.66 -2.28 6.32 -5 7 C-3.70700306 4.11562221 -2.34058637 2.12780579 0 0 Z " fill="#AF538A" transform="translate(25,68)"/>
<path d="M0 0 C-0.99 0.66 -1.98 1.32 -3 2 C-2.67 2.99 -2.34 3.98 -2 5 C-5.3 4.01 -8.6 3.02 -12 2 C-12 1.67 -12 1.34 -12 1 C-7.9472484 0.01751476 -4.16138263 -0.08159574 0 0 Z " fill="#FED7F6" transform="translate(204,274)"/>
<path d="M0 0 C0.33 0 0.66 0 1 0 C1 1.65 1 3.3 1 5 C0.01 5.33 -0.98 5.66 -2 6 C-3.10836423 7.88316159 -3.10836423 7.88316159 -4 10 C-4.99 11.485 -4.99 11.485 -6 13 C-6.99 12.67 -7.98 12.34 -9 12 C-8.51789063 11.46890625 -8.03578125 10.9378125 -7.5390625 10.390625 C-6.90742188 9.68421875 -6.27578125 8.9778125 -5.625 8.25 C-4.68527344 7.20585937 -4.68527344 7.20585937 -3.7265625 6.140625 C-2.12494817 4.15491312 -1.03479932 2.32045907 0 0 Z " fill="#EE7ABE" transform="translate(196,228)"/>
<path d="M0 0 C3.19199167 2.41556126 5.74716687 4.68003538 8 8 C7.67 8.66 7.34 9.32 7 10 C6.01 9.67 5.02 9.34 4 9 C3.67 7.35 3.34 5.7 3 4 C2.01 4.33 1.02 4.66 0 5 C0 3.35 0 1.7 0 0 Z " fill="#9D467A" transform="translate(292,123)"/>
<path d="M0 0 C0.66 0.33 1.32 0.66 2 1 C2.75 4.4375 2.75 4.4375 3 8 C2.34 8.66 1.68 9.32 1 10 C0.01 7.03 -0.98 4.06 -2 1 C-1.34 0.67 -0.68 0.34 0 0 Z " fill="#BC5290" transform="translate(18,112)"/>
<path d="M0 0 C0.66 0.99 1.32 1.98 2 3 C0.35 3 -1.3 3 -3 3 C-3 4.65 -3 6.3 -3 8 C-3.33 8 -3.66 8 -4 8 C-4.103125 7.21625 -4.20625 6.4325 -4.3125 5.625 C-4.77595022 2.66954819 -4.77595022 2.66954819 -8 1 C-5.01726077 0.00575359 -3.10494126 -0.31845551 0 0 Z " fill="#CA7EAB" transform="translate(168,107)"/>
<path d="M0 0 C1.5994614 3.19892281 2.42595236 5.35462576 3.125 8.75 C3.29257812 9.54921875 3.46015625 10.3484375 3.6328125 11.171875 C3.81457031 12.07679688 3.81457031 12.07679688 4 13 C3.34 12.67 2.68 12.34 2 12 C2 11.34 2 10.68 2 10 C1.34 10 0.68 10 0 10 C0 6.7 0 3.4 0 0 Z " fill="#A94A80" transform="translate(297,315)"/>
<path d="M0 0 C-3.48216283 2.05137315 -6.77275657 2.56818592 -10.75 3.125 C-11.92046875 3.29257812 -13.0909375 3.46015625 -14.296875 3.6328125 C-15.18890625 3.75398438 -16.0809375 3.87515625 -17 4 C-16 2 -16 2 -13.92578125 1.11328125 C-8.92855022 -0.41800778 -5.18959448 -1.50225103 0 0 Z " fill="#FEDEF8" transform="translate(287,283)"/>
<path d="M0 0 C1.29409289 0.61996078 2.58519673 1.24616353 3.875 1.875 C4.95394531 2.39707031 4.95394531 2.39707031 6.0546875 2.9296875 C8 4 8 4 10 6 C6.29706315 6.33663062 4.60465619 6.47736015 1.625 4.125 C0 2 0 2 0 0 Z " fill="#9F467C" transform="translate(319,356)"/>
<path d="M0 0 C1.65 0 3.3 0 5 0 C5.33 0.66 5.66 1.32 6 2 C8.02463255 2.65213292 8.02463255 2.65213292 10 3 C10.33 4.65 10.66 6.3 11 8 C9.16399255 6.85845641 7.33125195 5.71165684 5.5 4.5625 C4.4790625 3.92441406 3.458125 3.28632813 2.40625 2.62890625 C1.6121875 2.09136719 0.818125 1.55382812 0 1 C0 0.67 0 0.34 0 0 Z " fill="#AD4F89" transform="translate(151,281)"/>
<path d="M0 0 C1.48828125 1.14453125 1.48828125 1.14453125 3 3 C3.29296875 5.69921875 3.29296875 5.69921875 3.1875 8.6875 C3.16042969 9.68136719 3.13335937 10.67523438 3.10546875 11.69921875 C3.07066406 12.45847656 3.03585938 13.21773437 3 14 C1.20724134 10.88089144 0.65709282 8.32317572 0.375 4.75 C0.30023438 3.85796875 0.22546875 2.9659375 0.1484375 2.046875 C0.09945312 1.37140625 0.05046875 0.6959375 0 0 Z " fill="#EE75BF" transform="translate(202,146)"/>
<path d="M0 0 C0.66 0.33 1.32 0.66 2 1 C-0.31 3.64 -2.62 6.28 -5 9 C-5.33 8.34 -5.66 7.68 -6 7 C-4.78519695 3.57646413 -2.98228777 1.98819185 0 0 Z " fill="#FEE7FB" transform="translate(193,231)"/>
<path d="M0 0 C5.94 1.485 5.94 1.485 12 3 C12 3.33 12 3.66 12 4 C3.42857143 4.28571429 3.42857143 4.28571429 0 2 C0 1.34 0 0.68 0 0 Z " fill="#AA4F84" transform="translate(44,82)"/>
<path d="M0 0 C-1.28163247 2.56326494 -2.42785129 2.82416059 -5 4 C-6.11375 4.556875 -6.11375 4.556875 -7.25 5.125 C-7.8275 5.41375 -8.405 5.7025 -9 6 C-7.54266958 1.38512035 -7.54266958 1.38512035 -5.0625 -0.375 C-3 -1 -3 -1 0 0 Z " fill="#959595" transform="translate(177,73)"/>
<path d="M0 0 C1.32 0.66 2.64 1.32 4 2 C2.35 3.98 0.7 5.96 -1 8 C-1.66 7.01 -2.32 6.02 -3 5 C-2.01 5 -1.02 5 0 5 C0 3.35 0 1.7 0 0 Z " fill="#AE487E" transform="translate(332,369)"/>
<path d="M0 0 C1.32 0 2.64 0 4 0 C3.67 1.98 3.34 3.96 3 6 C1.68 5.67 0.36 5.34 -1 5 C-0.67 3.35 -0.34 1.7 0 0 Z " fill="#EE6BBD" transform="translate(333,364)"/>
<path d="M0 0 C2.83374881 3.20336822 3.5205537 5.78087253 4 10 C3.01 9.67 2.02 9.34 1 9 C0.67 6.03 0.34 3.06 0 0 Z " fill="#A84D7F" transform="translate(304,140)"/>
<path d="M0 0 C4.95 0.99 4.95 0.99 10 2 C9.67 2.66 9.34 3.32 9 4 C6.1875 4.25 6.1875 4.25 3 4 C2.01 2.68 1.02 1.36 0 0 Z " fill="#9E497A" transform="translate(57,85)"/>
<path d="M0 0 C0 3 0 3 -1.6875 5.125 C-4.20933322 7.16972964 -5.81390075 7.64598897 -9 8 C-6.17493137 5.0702992 -3.21203935 2.49825283 0 0 Z " fill="#ACACAC" transform="translate(336,243)"/>
<path d="M0 0 C0.90105469 0.19464844 1.80210937 0.38929687 2.73046875 0.58984375 C3.41753906 0.74582031 4.10460937 0.90179688 4.8125 1.0625 C4.8125 1.3925 4.8125 1.7225 4.8125 2.0625 C3.02116022 2.11641993 1.22936101 2.15525571 -0.5625 2.1875 C-1.56023437 2.21070312 -2.55796875 2.23390625 -3.5859375 2.2578125 C-6.1875 2.0625 -6.1875 2.0625 -8.1875 0.0625 C-4.80475734 -1.06508089 -3.41971777 -0.75500262 0 0 Z " fill="#A95085" transform="translate(214.1875,87.9375)"/>
<path d="M0 0 C2.97 0 5.94 0 9 0 C9.66 1.32 10.32 2.64 11 4 C7.37 3.01 3.74 2.02 0 1 C0 0.67 0 0.34 0 0 Z " fill="#A64983" transform="translate(140,277)"/>
<path d="M0 0 C0 0.99 0 1.98 0 3 C-2.97 3 -5.94 3 -9 3 C-5.87496336 0.91664224 -3.72863529 0 0 0 Z " fill="#E7C6DE" transform="translate(303,391)"/>
<path d="M0 0 C1.32 0 2.64 0 4 0 C4.33 1.32 4.66 2.64 5 4 C5.66 4 6.32 4 7 4 C6.67 4.66 6.34 5.32 6 6 C1.125 3.375 1.125 3.375 0 0 Z " fill="#AB5187" transform="translate(26,130)"/>
<path d="M0 0 C2.64 1.98 5.28 3.96 8 6 C7.01 6.33 6.02 6.66 5 7 C2.3125 5.25 2.3125 5.25 0 3 C0 2.01 0 1.02 0 0 Z " fill="#EC7DBF" transform="translate(279,112)"/>
</svg>
